PathFileType	4	(X/Y/Z)	Run_500 02
DataRate	CameraRate	NumFrames	NumMarkers	Units	OrigDataRate	OrigDataStartFrame	OrigNumFrames
100	100	4	42	mm	100	262	128
Frame#	Time	RASI			RPSI			RTH1			RTH2			RTH3			LTH1			LTH2			LTH3			RTB1			RTB2			RTB3			LTB1			LTB2			LTB3			RCAL			RTOE			RMT5			LCAL			LTOE			LMT5			LACR			RACR			CLAV			C7			RUA1			RUA2			RUA3			RLEL			LUA1			LUA2			LUA3			LLEL			LMEL			RFAsuperior			RFAradius			RFAulna			LFAsuperior			LFAradius			LPSI			RMEL			LFAulna			LASI		
		X1	Y1	Z1	X2	Y2	Z2	X3	Y3	Z3	X4	Y4	Z4	X5	Y5	Z5	X6	Y6	Z6	X7	Y7	Z7	X8	Y8	Z8	X9	Y9	Z9	X10	Y10	Z10	X11	Y11	Z11	X12	Y12	Z12	X13	Y13	Z13	X14	Y14	Z14	X15	Y15	Z15	X16	Y16	Z16	X17	Y17	Z17	X18	Y18	Z18	X19	Y19	Z19	X20	Y20	Z20	X21	Y21	Z21	X22	Y22	Z22	X23	Y23	Z23	X24	Y24	Z24	X25	Y25	Z25	X26	Y26	Z26	X27	Y27	Z27	X28	Y28	Z28	X29	Y29	Z29	X30	Y30	Z30	X31	Y31	Z31	X32	Y32	Z32	X33	Y33	Z33	X34	Y34	Z34	X35	Y35	Z35	X36	Y36	Z36	X37	Y37	Z37	X38	Y38	Z38	X39	Y39	Z39	X40	Y40	Z40	X41	Y41	Z41	X42	Y42	Z42	

262	  2.620000	1050.081056	1046.053095	-232.697971	887.420643	1113.867264	-284.533595	955.428858	933.962261	-181.192980	844.810281	822.293057	-203.779273	820.311107	669.377216	-222.956098	1010.823813	971.057559	-537.011119	1050.173705	816.097733	-487.310601	1183.830034	760.766551	-485.803808	730.566211	423.885046	-300.193426	637.821171	432.663285	-233.043974	595.757191	289.975781	-317.795869	1288.201134	570.926066	-429.482754	1166.761237	496.034284	-471.622354	1190.157033	374.773785	-416.289477	434.079452	281.350109	-310.687049	548.454723	 82.360638	-367.798780	506.835508	 87.939531	-271.561115	1028.804336	281.608538	-377.873325	1253.382152	205.927323	-393.693232	1183.146424	172.920373	-481.522191	965.830811	1567.424344	-488.978057	1056.855433	1524.032980	-185.322249	1072.869313	1497.956468	-324.924163	950.984144	1570.833427	-324.267365	982.321949	1415.406879	-99.250858	1037.092335	1358.477230	-94.783178	994.224258	1276.014178	-39.108751	981.528923	1209.477938	-13.071687	839.326595	1528.566581	-509.266473	823.773564	1463.977087	-566.541465	727.328123	1450.590430	-573.667669	674.864615	1404.144421	-594.911462	665.395862	1378.805799	-508.368919	1077.638307	1208.265742	-64.691028	1167.057064	1264.504870	-209.459110	1197.809349	1211.668164	-174.693484	709.629825	1327.516240	-604.649578	866.418884	1237.488930	-548.263314	873.463426	1124.374020	-396.620763	954.800953	1188.438814	-98.420388	825.614308	1189.993011	-583.496445	1028.244703	1068.097563	-469.252159	
263	  2.630000	1053.501757	1050.454109	-232.491763	891.282164	1119.400227	-282.699221	956.235340	939.760638	-180.175822	841.750096	833.428490	-204.446724	812.182242	681.206434	-223.100039	1009.608203	973.449194	-536.386373	1046.372264	817.132443	-485.398158	1179.965249	759.918869	-483.753415	715.000054	437.103774	-299.932677	624.403877	447.594788	-231.030718	575.796403	306.925110	-315.154229	1295.244686	571.185759	-426.465696	1183.471209	483.121570	-469.135281	1219.502434	365.931367	-411.585818	420.563508	308.791268	-303.618175	512.960378	 96.785317	-366.245506	472.095223	105.796566	-269.741715	1069.618988	255.232258	-373.043348	1301.318387	206.889480	-382.802925	1238.735992	162.816678	-468.505675	964.039843	1573.179210	-488.146051	1058.635910	1530.151173	-187.276472	1072.756549	1503.263737	-326.426880	950.848962	1575.332523	-323.840087	985.610696	1422.840047	-99.338586	1040.288512	1365.454991	-96.137394	997.559959	1283.889604	-38.772250	985.403063	1216.686834	-12.938909	837.315966	1537.204320	-506.595914	819.423834	1473.952937	-564.604325	722.347490	1462.757471	-569.890063	669.105808	1416.582929	-590.815472	660.657725	1390.108608	-504.546922	1079.389574	1218.320506	-67.770935	1162.867726	1276.412634	-214.857918	1196.370394	1224.984763	-180.987646	703.908319	1340.599047	-601.782919	862.029596	1251.242748	-547.966993	874.933375	1129.710132	-394.666096	956.353243	1195.651519	-97.681709	821.340735	1203.465165	-582.868516	1028.805054	1074.578788	-469.873756	
264	  2.640000	1055.359978	1054.606144	-232.638863	893.521460	1124.501505	-282.240889	956.633216	945.290054	-179.014473	840.493498	840.955207	-203.997184	809.142296	688.834803	-223.419963	1008.120526	972.642050	-535.957275	1042.796518	816.356122	-483.251622	1175.277782	756.577099	-482.130205	702.285102	448.248536	-301.436032	615.991610	460.634756	-228.543454	555.738239	325.258765	-312.969879	1299.408824	569.471234	-424.714339	1198.479796	469.410013	-466.771622	1246.233244	357.590088	-407.217315	404.567257	336.711058	-295.596879	479.711837	117.052262	-365.941597	440.777671	128.030276	-268.432490	1109.603266	231.480124	-368.394845	1344.951320	209.407414	-372.175226	1306.172483	166.699493	-444.674659	962.145271	1577.781049	-487.516793	1060.033144	1535.158875	-188.957442	1072.935976	1507.776690	-327.956376	950.764506	1578.840147	-323.652545	988.599404	1428.961272	-99.158012	1042.960986	1371.176377	-97.468209	1000.513364	1290.524419	-38.144345	988.490826	1223.099330	-12.133208	835.399878	1544.029109	-504.051920	815.520156	1482.107696	-562.633150	717.803355	1472.607728	-566.118509	663.957959	1426.680011	-586.655538	656.764200	1398.830174	-500.627339	1080.408593	1225.934639	-69.968714	1158.523239	1284.624154	-219.363527	1193.746413	1233.796142	-186.815658	698.875152	1351.356536	-599.220712	858.536769	1263.035036	-548.080749	876.108946	1133.617014	-394.350605	956.852490	1202.030994	-96.003051	818.219345	1214.925686	-583.066120	1028.978932	1079.636927	-472.410055	
265	  2.650000	1055.923064	1058.612045	-233.299396	893.939253	1128.853923	-283.015690	957.651362	950.341471	-177.707847	841.430126	844.443124	-202.294935	811.040752	691.804482	-223.650897	1006.678970	970.123760	-535.632710	1039.317406	814.482550	-480.911129	1169.288336	750.994373	-480.710997	691.959736	457.425239	-303.126219	610.586277	472.787953	-225.834843	536.205351	345.064851	-310.649304	1300.464666	565.820110	-423.470329	1211.215628	455.246265	-464.258221	1269.353570	349.833859	-402.975068	386.098272	365.299954	-287.044029	449.222088	143.404663	-366.436129	413.657476	154.099088	-267.261642	1147.256453	210.803708	-363.778272	1383.340074	213.190335	-362.343374	1381.159821	185.143683	-411.584896	960.533770	1581.296265	-487.328817	1060.921760	1539.193726	-190.307089	1073.474489	1511.703106	-329.527263	950.816903	1581.642690	-323.962230	990.805617	1433.659151	-98.874070	1044.815118	1375.654833	-98.575977	1002.824485	1295.865417	-37.403195	990.542353	1228.727066	-10.862893	833.956906	1549.120234	-501.985930	812.574879	1488.278349	-560.798561	714.225004	1480.150263	-562.468473	659.845664	1434.385891	-582.561648	654.167246	1405.062240	-496.716183	1080.743800	1230.888290	-71.265401	1154.381220	1289.037687	-222.863443	1190.407088	1238.038648	-191.683882	694.887191	1359.672833	-596.877892	856.143903	1272.513674	-548.608134	876.951589	1135.976392	-395.487384	956.199803	1207.639759	-93.637320	816.276330	1224.040542	-583.889521	1028.769936	1082.994489	-475.867499	
